<?xml version="1.0" encoding="utf-8"?>
<svg width="334" height="140" fill="none" xmlns="http://www.w3.org/2000/svg">
  <path fill="#8A1114" d="M -10.541 47.029 L -11.003 47.029 C -10.849 47.041 -10.694 47.041 -10.541 47.029 Z M -7.756 47.029 L -8.22 47.029 C -8.065 47.04 -7.91 47.04 -7.756 47.029 Z" style=""/>
  <path fill="#E0E0E0" d="M 44.038 43.513 L 45.023 44.672 L 46.049 45.849 C 46.723 46.623 47.413 47.38 48.12 48.119 C 48.462 48.484 48.803 48.85 49.17 49.172 C 49.535 49.494 49.853 49.837 50.212 50.133 C 50.571 50.429 50.896 50.693 51.214 50.919 C 51.453 51.091 51.705 51.243 51.966 51.373 L 51.443 51.285 C 51.288 51.265 51.132 51.303 50.999 51.391 C 50.999 51.391 51.08 51.391 51.197 51.318 C 51.514 51.11 51.809 50.865 52.075 50.587 C 52.775 49.876 53.43 49.115 54.034 48.309 C 54.695 47.45 55.335 46.572 55.954 45.677 C 56.588 44.769 57.218 43.856 57.841 42.939 L 57.872 42.899 C 58.593 41.89 60.065 42.093 60.523 43.265 C 60.659 43.613 60.678 44 60.58 44.361 C 60.234 45.516 59.834 46.652 59.38 47.764 C 58.925 48.884 58.423 49.982 57.876 51.054 C 57.294 52.195 56.622 53.28 55.866 54.297 C 55.415 54.899 54.906 55.448 54.348 55.935 C 53.979 56.255 53.573 56.525 53.142 56.739 C 52.508 57.055 51.814 57.208 51.115 57.185 C 50.986 57.18 50.858 57.162 50.731 57.13 L 50.588 57.098 C 49.839 56.906 49.115 56.617 48.431 56.238 C 47.859 55.927 47.304 55.576 46.773 55.189 C 45.799 54.488 44.87 53.718 43.991 52.883 C 43.146 52.09 42.333 51.259 41.553 50.393 C 41.168 49.965 40.791 49.528 40.422 49.084 C 40.046 48.629 39.677 48.165 39.318 47.694 C 38.427 46.307 38.657 44.425 39.851 43.329 C 41.047 42.235 42.823 42.282 43.966 43.439 L 44.038 43.513 Z" style=""/>
  <path fill="#FF8B7B" d="M 59.373 44.913 L 62.419 45.07 L 61.431 40.683 C 61.431 40.683 58.597 40.906 58.142 42.463 C 58.095 42.637 58.105 42.823 58.17 42.99 L 58.731 44.427 C 58.839 44.709 59.089 44.898 59.373 44.913 Z" style=""/>
  <path fill="#FF8B7B" d="M 65.136 42.467 L 64.548 41.005 C 64.313 40.42 63.716 40.102 63.136 40.252 L 61.427 40.702 L 62.415 45.088 L 64.466 44.204 C 64.774 44.074 65.02 43.815 65.146 43.487 C 65.273 43.16 65.269 42.792 65.136 42.467 Z" style=""/>
  <path fill="#263238" d="M 36.836 105.665 C 33.603 90.453 31.603 72.112 31.603 72.112 L 44.862 71.885 C 44.862 71.885 44.678 96.602 44.705 106.955 C 44.74 117.722 45.437 141.415 45.437 141.415 L 41.414 141.415 C 41.414 141.415 36.221 118.972 36.836 105.665 Z" style=""/>
  <path fill="#000" d="M 35.804 84.677 L 33.705 88.004 C 34.331 92.157 35.072 96.73 35.937 101.212 C 36.3 94.325 36.238 86.322 35.804 84.677 Z" style=""/>
  <path fill="#263238" d="M 50.803 143.525 C 50.803 143.525 45.262 142.128 44.845 141.189 L 41.769 141.189 L 41.79 144.673 L 43.69 144.673 L 43.98 144.351 L 44.463 144.673 C 46.001 144.673 50.089 144.607 51.057 144.238 C 51.095 143.97 50.999 143.699 50.803 143.525 Z M 24.503 105.237 C 26.038 89.937 25.99 79.717 27.86 72.177 L 39.934 71.984 C 39.934 71.984 34.905 96.251 32.57 106.349 C 30.236 116.446 26.24 141.408 26.24 141.408 L 22.514 141.408 C 22.514 141.408 21.342 117.068 24.503 105.238 L 24.503 105.237 Z" style=""/>
  <path fill="#E0E0E0" d="M 26.903 75.157 C 26.636 76.985 25.686 87.799 24.701 91.737 C 32.752 95.557 45.058 94.054 45.437 91.576 C 45.324 86.984 45.095 75.157 45.095 75.157 L 26.903 75.157 Z" style=""/>
  <path fill="#000" d="M 27.351 77.164 C 27.913 78.138 28.592 79.029 29.371 79.814 C 29.371 79.814 27.634 79.482 27.351 77.164 Z M 43.533 79.712 C 43.995 78.976 44.369 78.182 44.647 77.347 C 44.647 77.347 44.726 79.215 43.533 79.712 Z M 27.426 78.543 C 27.612 79.275 27.886 79.978 28.243 80.633 C 27.576 80.2 27.246 79.356 27.426 78.543 Z" opacity=".1" style=""/>
  <path fill="#263238" d="M 29.713 143.525 C 29.713 143.525 26.257 142.128 25.861 141.189 L 22.784 141.189 L 22.723 144.673 L 25.242 144.673 L 25.539 144.351 L 26.014 144.673 C 27.552 144.673 28.97 144.607 29.949 144.238 C 29.996 143.973 29.906 143.7 29.713 143.525 Z M 27.416 41.655 C 31.682 41.089 37.773 41.144 41.858 41.897 C 43.951 42.303 45.567 44.095 45.871 46.346 C 46.729 52.945 45.991 64.476 45.444 76.082 C 36.111 79.497 26.266 76.035 26.266 76.035 C 25.925 73.695 26.691 66.021 27.203 61.927 C 26.435 57.697 24.811 52.853 23.724 47.234 C 23.166 44.572 24.883 41.978 27.416 41.655 Z" style=""/>
  <path fill="#fff" d="M 27.416 41.655 C 31.682 41.089 37.773 41.144 41.858 41.897 C 43.951 42.303 45.567 44.095 45.871 46.346 C 46.729 52.945 45.991 64.476 45.444 76.082 C 36.111 79.497 26.266 76.035 26.266 76.035 C 25.925 73.695 26.691 66.021 27.203 61.927 C 26.435 57.697 24.811 52.853 23.724 47.234 C 23.166 44.572 24.883 41.978 27.416 41.655 Z" opacity=".1" style=""/>
  <path fill="#FF8B7B" d="M 31.637 32.944 L 36.491 37.203 C 35.863 38.99 35.664 40.858 38.406 41.564 C 39.089 42.533 38.064 44.233 36.846 44.894 C 33.968 44.193 32.311 43.366 31.193 41.724 C 31.545 40.438 32.106 35.587 31.637 32.944 Z" style=""/>
  <path fill="#000" d="M 33.661 34.721 L 36.491 37.199 C 36.338 37.613 36.223 38.042 36.15 38.479 C 35.052 38.563 33.528 37.382 33.46 36.307 C 33.434 35.77 33.503 35.232 33.661 34.72 L 33.661 34.721 Z" opacity=".2" style=""/>
  <path fill="#FF8B7B" d="M 30.94 30.041 C 31.384 33.298 31.487 35.229 33.165 36.757 C 35.691 39.057 39.356 37.184 39.835 33.832 C 40.262 30.823 39.465 26.002 36.365 24.992 C 33.368 24.017 30.451 26.732 30.94 30.041 Z" style=""/>
  <path fill="#263238" d="M 30.912 31.544 C 31.551 32.285 32.538 32.555 33.431 32.234 C 32.7 31.441 33.411 28.539 32.68 27.358 C 34.095 27.658 39.605 28.513 40.132 26.469 C 40.702 24.276 38.423 22.525 37.144 22.36 C 37.52 23.274 37.486 23.936 36.084 23.64 C 34.683 23.344 28.906 21.918 29.546 24.813 C 27.685 24.813 27.56 27.709 28.919 29.094 C 29.664 29.831 30.333 30.653 30.913 31.544 L 30.912 31.544 Z" style=""/>
  <path fill="#263238" d="M 29.887 24.674 C 28.772 24.378 29.121 23.281 29.371 23.168 C 28.328 23.438 27.949 24.535 29.207 25.04 C 30.465 25.544 29.887 24.674 29.887 24.674 Z" style=""/>
  <path fill="#FF8B7B" d="M 30.082 32.041 C 30.292 32.762 30.762 33.363 31.388 33.711 C 32.225 34.168 32.833 33.415 32.755 32.472 C 32.69 31.62 32.18 30.359 31.264 30.279 C 30.389 30.234 29.762 31.169 30.082 32.041 Z" style=""/>
  <path fill="#263238" d="M 35.216 30.158 C 35.237 30.425 35.387 30.63 35.558 30.615 C 35.729 30.6 35.838 30.366 35.818 30.103 C 35.797 29.84 35.647 29.631 35.475 29.646 C 35.305 29.661 35.196 29.891 35.216 30.158 Z M 38.196 30.081 C 38.217 30.348 38.368 30.553 38.539 30.535 C 38.71 30.516 38.815 30.29 38.795 30.023 C 38.774 29.756 38.624 29.555 38.454 29.569 C 38.282 29.584 38.177 29.814 38.196 30.081 Z" style=""/>
  <path fill="#FF5652" d="M 37.591 30.439 C 37.951 31.225 38.411 31.954 38.959 32.604 C 38.553 33.086 37.787 32.969 37.787 32.969 L 37.591 30.439 Z" style=""/>
  <path fill="#263238" d="M 34.755 29.31 C 34.731 29.317 34.706 29.317 34.683 29.31 C 34.606 29.279 34.568 29.186 34.601 29.105 C 34.766 28.629 35.136 28.266 35.595 28.133 C 35.706 28.109 35.801 28.223 35.765 28.339 C 35.748 28.392 35.705 28.432 35.654 28.443 C 35.29 28.553 34.999 28.843 34.871 29.223 C 34.86 29.247 34.843 29.267 34.824 29.282 C 34.803 29.298 34.78 29.307 34.755 29.31 Z M 39.926 28.886 C 39.877 28.887 39.83 28.859 39.804 28.813 C 39.619 28.467 39.289 28.237 38.918 28.195 C 38.859 28.194 38.806 28.155 38.785 28.095 C 38.777 28.076 38.774 28.055 38.774 28.034 C 38.777 27.946 38.846 27.878 38.929 27.88 C 39.399 27.926 39.819 28.212 40.056 28.648 C 40.076 28.684 40.081 28.726 40.073 28.766 C 40.065 28.807 40.041 28.842 40.008 28.864 C 39.984 28.882 39.955 28.89 39.926 28.886 Z" style=""/>
  <path fill="#E0E0E0" d="M 31.192 41.725 C 31.192 41.725 36.173 49.819 38.067 55.529 C 39.934 48.829 40.149 43.465 38.409 41.564 C 37.849 42.321 35.592 43.344 31.193 41.724 L 31.192 41.725 Z M 29.494 47.706 L 29.012 49.168 L 28.534 50.689 C 28.222 51.692 27.928 52.701 27.655 53.716 C 27.518 54.216 27.399 54.714 27.289 55.204 C 27.18 55.694 27.074 56.18 26.999 56.644 C 26.924 57.109 26.866 57.558 26.827 57.96 C 26.809 58.268 26.809 58.577 26.827 58.885 L 26.65 58.352 C 26.507 58.062 26.36 57.986 26.352 57.986 C 26.346 57.986 26.4 58.059 26.507 58.14 C 26.825 58.34 27.163 58.502 27.515 58.622 C 28.423 58.949 29.352 59.21 30.294 59.404 C 31.295 59.616 32.327 59.77 33.37 59.953 C 34.413 60.136 35.486 60.263 36.518 60.421 L 36.567 60.421 C 37.742 60.607 38.288 62.083 37.55 63.078 C 37.324 63.384 37.003 63.594 36.645 63.671 C 35.532 63.897 34.408 64.063 33.278 64.168 C 32.142 64.28 31.001 64.332 29.86 64.325 C 28.645 64.323 27.433 64.209 26.236 63.985 C 25.534 63.845 24.846 63.628 24.185 63.338 C 23.745 63.144 23.329 62.891 22.948 62.585 C 22.386 62.141 21.93 61.563 21.615 60.896 C 21.557 60.772 21.51 60.642 21.474 60.508 L 21.437 60.358 C 21.238 59.563 21.128 58.744 21.113 57.92 C 21.096 57.233 21.12 56.546 21.185 55.862 C 21.293 54.612 21.482 53.373 21.748 52.152 C 21.994 50.979 22.289 49.817 22.63 48.671 C 22.966 47.523 23.35 46.393 23.782 45.282 C 24.697 42.946 27.633 42.546 29.068 44.562 C 29.69 45.436 29.862 46.586 29.528 47.625 L 29.494 47.705 L 29.494 47.706 Z" style=""/>
  <path fill="#FF8B7B" d="M 37.004 60.892 L 40.025 61.294 L 38.357 65.429 C 38.357 65.429 35.599 64.699 35.401 63.075 C 35.381 62.896 35.421 62.715 35.514 62.563 L 36.293 61.251 C 36.445 60.995 36.722 60.855 37.004 60.892 Z M 42.292 64.354 L 41.478 65.7 C 41.152 66.233 40.513 66.437 39.967 66.182 L 38.357 65.429 L 40.025 61.294 L 41.909 62.541 C 42.188 62.725 42.385 63.02 42.456 63.361 C 42.527 63.703 42.469 64.06 42.292 64.354 Z" style=""/>
  <path fill="#FAFAFA" d="M 31.435 40.467 C 30.8 40.575 30.218 40.91 29.784 41.417 C 31.138 43.35 33.067 44.73 35.254 45.33 C 35.097 44.77 35.568 43.136 36.088 42.551 C 34.177 42.248 31.435 40.467 31.435 40.467 Z" style=""/>
  <path fill="#FAFAFA" d="M 36.686 40.668 C 37.334 40.795 37.95 41.065 38.495 41.462 C 38.495 41.462 40.409 43.747 38.152 45.037 C 38.306 44.477 37.127 42.987 36.071 42.551 C 37.979 42.248 36.686 40.668 36.686 40.668 Z" style=""/>
  <path fill="#8A1114" d="M 36.282 43.853 C 34.771 42.986 32.902 42.047 33.421 43.563 C 33.941 45.081 33.254 45.607 33.931 46.123 C 34.608 46.638 35.982 45.223 36.437 45.026 C 36.891 44.829 36.282 43.853 36.282 43.853 Z M 37.353 43.841 C 38.505 43.011 39.947 42.112 39.691 43.593 C 39.434 45.073 40.07 45.589 39.567 46.09 C 39.065 46.59 37.773 45.19 37.362 44.993 C 36.953 44.796 37.353 43.842 37.353 43.842 L 37.353 43.841 Z" style=""/>
  <path fill="#8A1114" d="M 36.078 43.736 C 36.419 43.516 37.253 43.239 37.667 43.834 C 38.08 44.43 37.948 45.428 37.376 45.549 C 36.961 45.639 36.533 45.478 36.262 45.129 C 36.525 44.679 36.447 44.091 36.078 43.736 Z" style=""/>
  <path fill="#000" d="M 26.448 141.525 L 22.302 141.649 L 22.083 139.138 L 26.899 139.445 L 26.448 141.525 Z M 45.584 141.518 L 41.106 141.649 L 40.61 139.474 L 45.611 138.955 L 45.584 141.518 Z" style=""/>
  <path fill="#fff" d="M 35.824 60.041 C 33.731 59.379 31.572 58.98 29.391 58.852 C 28.927 58.882 28.749 70.116 28.786 74.712 C 28.786 75.332 35.473 75.208 37.182 74.927 C 37.277 73.644 37.298 64.277 37.742 61.349 C 37.812 60.878 37.573 60.416 37.161 60.23 C 36.738 60.048 36.278 59.982 35.824 60.04 L 35.824 60.041 Z" style=""/>
  <path fill="#8A1114" d="M 70.824 42.058 L 51.846 42.058 L 51.846 42.635 L 70.824 42.635 L 70.824 42.058 Z M 70.428 42.635 L 52.242 42.635 L 52.94 43.041 L 69.734 43.041 L 70.428 42.635 Z" style=""/>
  <path fill="#000" d="M 70.428 42.635 L 52.242 42.635 L 52.94 43.041 L 69.734 43.041 L 70.428 42.635 Z" opacity=".2" style=""/>
  <path fill="#8A1114" d="M 62.118 33.898 C 62.118 34.426 61.669 34.823 61.185 34.723 C 60.594 34.602 60.348 33.842 60.742 33.355 C 60.789 33.298 60.841 33.248 60.9 33.206 C 61.402 32.848 62.078 33.206 62.116 33.849 C 62.117 33.866 62.118 33.882 62.118 33.898 Z M 69.539 39.378 C 69.012 37.633 68.01 36.095 66.661 34.962 L 66.873 34.672 C 68.276 35.852 69.319 37.452 69.868 39.268 L 69.539 39.378 Z M 65.475 34.121 C 65.092 33.895 64.693 33.701 64.282 33.54 L 64.398 33.196 C 64.826 33.368 65.24 33.575 65.639 33.814 L 65.475 34.121 Z" style=""/>
  <path fill="#8A1114" d="M 61.336 33.898 C 57.048 33.898 53.573 37.615 53.572 42.2 L 69.098 42.2 C 69.098 37.615 65.623 33.898 61.336 33.898 Z" style=""/>
  <path fill="#fff" d="M 54.643 41.458 L 56.649 41.458 C 56.792 41.455 56.913 41.345 56.939 41.195 C 57.343 38.921 58.611 36.939 60.628 35.218 C 60.723 35.138 60.756 34.999 60.707 34.88 C 60.66 34.761 60.545 34.69 60.426 34.706 C 57.292 35.148 54.812 37.757 54.345 41.1 C 54.335 41.191 54.361 41.283 54.417 41.351 C 54.474 41.421 54.557 41.46 54.643 41.458 Z" opacity=".3" style=""/>
  <path fill="#263238" d="M 36.638 33.92 C 36.798 33.927 36.958 33.919 37.116 33.894 C 37.138 33.89 37.157 33.877 37.169 33.857 C 37.181 33.838 37.186 33.815 37.182 33.792 C 37.17 33.743 37.127 33.711 37.079 33.715 C 36.355 33.831 35.622 33.586 35.089 33.05 C 35.066 33.023 35.029 33.015 34.998 33.03 C 34.987 33.035 34.978 33.042 34.97 33.05 C 34.955 33.068 34.947 33.091 34.947 33.114 C 34.947 33.137 34.955 33.16 34.97 33.178 C 35.422 33.636 36.016 33.9 36.638 33.92 Z" style=""/>
  <text style="fill: rgb(255, 255, 255); font-family: &quot;General Sans&quot;; font-size: 5.08448px; font-weight: 700; line-height: 8.13516px; white-space: pre;" transform="matrix(4.682683, 0, 0, 5.310282, -714.099792, -279.184662)" x="167.004" y="66.624">PIZZACONTROLLER</text>
  <text style="fill: rgb(255, 255, 255); font-family: &quot;General Sans&quot;; font-size: 2.5488px; white-space: pre; opacity: 0.9;" transform="matrix(5.823345, 0, 0, 5.885125, -1191.205444, -409.692688)"><tspan x="226.755" y="86.654" style="font-weight: 700;">O app da Cozinha</tspan><tspan>
</tspan></text>
</svg>